HIERARCHY
ROOT Hips
{
 OFFSET 0.000000 0.000000 0.000000
 CHANNELS 6 Xposition Yposition Zposition Yrotation Xrotation Zrotation
 JOINT Chest
 {
  OFFSET 0.000000 9.968492 -0.001267
  CHANNELS 3 Yrotation Xrotation Zrotation
  JOINT Chest2
  {
   OFFSET 0.000000 10.967159 0.002301
   CHANNELS 3 Yrotation Xrotation Zrotation
   JOINT Chest3
   {
    OFFSET 0.000000 9.909283 0.000000
    CHANNELS 3 Yrotation Xrotation Zrotation
    JOINT Chest4
    {
     OFFSET 0.000000 9.909283 0.000000
     CHANNELS 3 Yrotation Xrotation Zrotation
     JOINT Neck
     {
      OFFSET 0.000000 13.946294 0.000000
      CHANNELS 3 Yrotation Xrotation Zrotation
      JOINT Head
      {
       OFFSET 0.000000 9.224544 0.005472
       CHANNELS 3 Yrotation Xrotation Zrotation
       End Site
       {
        OFFSET 0.000000 17.643221 0.002858
       }
      }
     }
     JOINT RightCollar
     {
      OFFSET -3.037229 7.783075 0.000000
      CHANNELS 3 Yrotation Xrotation Zrotation
      JOINT RightShoulder
      {
       OFFSET -14.223264 0.000000 0.000000
       CHANNELS 3 Yrotation Xrotation Zrotation
       JOINT RightElbow
       {
        OFFSET 0.000000 -30.459151 0.000000
        CHANNELS 3 Yrotation Xrotation Zrotation
        JOINT RightWrist
        {
         OFFSET 0.000000 -24.900006 -0.000000
         CHANNELS 3 Yrotation Xrotation Zrotation
         End Site
         {
          OFFSET 0.000000 -18.592915 0.000000
         }
        }
       }
      }
     }
     JOINT LeftCollar
     {
      OFFSET 3.037229 7.783075 0.000000
      CHANNELS 3 Yrotation Xrotation Zrotation
      JOINT LeftShoulder
      {
       OFFSET 14.223264 0.000000 0.000000
       CHANNELS 3 Yrotation Xrotation Zrotation
       JOINT LeftElbow
       {
        OFFSET 0.000000 -30.459151 0.000000
        CHANNELS 3 Yrotation Xrotation Zrotation
        JOINT LeftWrist
        {
         OFFSET 0.000000 -24.900006 -0.000000
         CHANNELS 3 Yrotation Xrotation Zrotation
         End Site
         {
          OFFSET 0.000000 -18.592915 0.000000
         }
        }
       }
      }
     }
    }
   }
  }
 }
 JOINT RightHip
 {
  OFFSET -8.105589 0.006207 0.000633
  CHANNELS 3 Yrotation Xrotation Zrotation
  JOINT RightKnee
  {
   OFFSET 0.000000 -42.037588 -0.000599
   CHANNELS 3 Yrotation Xrotation Zrotation
   JOINT RightAnkle
   {
    OFFSET 0.000000 -41.031088 -0.001013
    CHANNELS 3 Yrotation Xrotation Zrotation
    JOINT RightToe
    {
     OFFSET 0.000000 -7.217244 16.396997
     CHANNELS 3 Yrotation Xrotation Zrotation
     End Site
     {
      OFFSET 0.000000 -1.535852 6.674588
     }
    }
   }
  }
 }
 JOINT LeftHip
 {
  OFFSET 8.105589 0.006207 0.000633
  CHANNELS 3 Yrotation Xrotation Zrotation
  JOINT LeftKnee
  {
   OFFSET 0.000000 -42.037588 -0.000599
   CHANNELS 3 Yrotation Xrotation Zrotation
   JOINT LeftAnkle
   {
    OFFSET 0.000000 -41.031088 -0.001013
    CHANNELS 3 Yrotation Xrotation Zrotation
    JOINT LeftToe
    {
     OFFSET 0.000000 -7.217244 16.396997
     CHANNELS 3 Yrotation Xrotation Zrotation
     End Site
     {
      OFFSET 0.000000 -1.535852 6.674588
     }
    }
   }
  }
 }
}
MOTION
Frames: 8
Frame Time: 0.008333
343.784419 90.291038 258.869469 67.510853 -4.241672 1.867579 -0.513581 6.621722 1.283746 -0.255301 2.953108 0.561318 -0.255301 2.953108 0.561318 -0.194148 2.214599 0.422130 -1.371728 31.134820 -2.438283 -0.974381 9.032868 -2.406086 -4.847483 7.040015 7.739113 5.526883 -5.619806 -16.169940 39.139435 -42.123531 -2.162370 4.787757 0.056729 19.036311 6.888411 6.128245 -8.386752 -0.522509 -2.480311 12.005785 -28.314241 -46.554364 -9.181836 -10.131021 6.896948 -4.855855 -7.739943 13.321439 -2.402189 -4.470691 8.307991 3.287593 3.803931 -15.646108 -0.253179 -0.012342 -0.254269 -0.117466 8.951708 -10.414927 -3.520359 8.813313 2.224372 -0.539785 -1.029058 7.784939 -7.743951 0.186994 1.876983 1.211122
344.212318 90.184595 258.985356 67.423526 -4.203900 1.695640 -0.477282 6.612277 1.313292 -0.240539 2.951258 0.575844 -0.240539 2.951258 0.575844 -0.183147 2.213220 0.432950 -1.348358 31.127500 -2.426804 -0.950854 9.022532 -2.398475 -4.821834 7.040970 7.732020 5.599871 -5.547476 -16.309193 38.946942 -42.230988 -1.926260 4.705796 0.094917 18.980305 6.883620 6.126501 -8.404295 -0.486601 -2.489722 11.921306 -28.259069 -46.536510 -9.176429 -10.171819 6.811708 -4.720732 -7.695480 13.481942 -2.325536 -4.449548 8.531989 3.298903 3.807563 -15.952958 -0.131541 -0.007525 -0.264714 -0.128346 8.819063 -10.605257 -3.486299 8.836395 1.792341 -0.528656 -0.793662 7.618630 -7.391924 0.206043 2.042199 0.809975
344.645365 90.076588 259.105407 67.328635 -4.179050 1.519769 -0.439417 6.600621 1.348540 -0.225021 2.948356 0.590491 -0.225021 2.948356 0.590491 -0.171579 2.211053 0.443857 -1.318975 31.126491 -2.406265 -0.922731 9.020490 -2.382192 -4.802695 7.052918 7.732684 5.689979 -5.476964 -16.465287 38.735352 -42.336575 -1.683333 4.634507 0.136105 18.931241 6.877111 6.132433 -8.428641 -0.455284 -2.501758 11.838028 -28.204151 -46.515528 -9.169346 -10.212782 6.741616 -4.605662 -7.645960 13.653038 -2.251007 -4.430788 8.771703 3.308689 3.879264 -16.258780 -0.019404 0.001917 -0.282361 -0.140464 8.693425 -10.775447 -3.420238 8.922575 1.450902 -0.545948 -0.650757 7.417463 -6.898205 0.217589 2.128654 0.382066
345.088193 89.967202 259.225426 67.225296 -4.168748 1.339668 -0.399908 6.589767 1.377042 -0.209324 2.944712 0.601934 -0.209324 2.944712 0.601934 -0.159861 2.208331 0.452361 -1.288819 31.127123 -2.379960 -0.895065 9.020528 -2.359669 -4.791436 7.068708 7.731569 5.804481 -5.403349 -16.604023 38.526351 -42.418977 -1.458937 4.554728 0.160643 18.882525 6.871384 6.142546 -8.441834 -0.433666 -2.519997 11.758259 -28.123700 -46.491570 -9.169767 -10.268804 6.694112 -4.546560 -7.590243 13.839513 -2.179115 -4.407187 9.015818 3.324416 3.882892 -16.564288 0.119150 0.008861 -0.302585 -0.155652 8.574636 -10.914918 -3.331481 9.070187 1.197285 -0.578137 -0.523851 7.197347 -6.304150 0.221376 2.133172 -0.027746
345.538915 89.856524 259.349493 67.113331 -4.173122 1.162356 -0.356203 6.581707 1.406605 -0.191699 2.941505 0.612291 -0.191699 2.941505 0.612291 -0.146692 2.205939 0.460041 -1.255751 31.127305 -2.344580 -0.866207 9.019721 -2.327668 -4.788008 7.074283 7.732244 5.920790 -5.333105 -16.729337 38.318368 -42.483858 -1.244032 4.476182 0.197377 18.839860 6.863347 6.150914 -8.453772 -0.420913 -2.531517 11.673276 -28.055895 -46.478111 -9.152593 -10.329015 6.670098 -4.512077 -7.534089 14.033728 -2.119349 -4.385333 9.285517 3.341885 3.938411 -16.872575 0.255035 0.018263 -0.331165 -0.174144 8.465370 -11.028121 -3.228889 9.269632 1.044736 -0.622298 -0.419064 6.975246 -5.686114 0.216028 2.050840 -0.366671
346.000336 89.744283 259.474496 66.992327 -4.187169 0.981185 -0.308376 6.576243 1.428099 -0.172679 2.938515 0.619250 -0.172679 2.938515 0.619250 -0.132461 2.203714 0.465167 -1.224521 31.125409 -2.308622 -0.839513 9.016106 -2.294583 -4.790370 7.073543 7.744323 6.035074 -5.261415 -16.848893 38.122538 -42.538656 -1.041670 4.395401 0.226949 18.807590 6.849175 6.149298 -8.459218 -0.409045 -2.545996 11.600028 -27.992835 -46.458001 -9.137431 -10.382777 6.668655 -4.505988 -7.466558 14.230585 -2.060140 -4.367407 9.578207 3.357891 3.953933 -17.187055 0.418969 0.023262 -0.363638 -0.197297 8.383123 -11.110153 -3.111058 9.482448 0.984840 -0.685427 -0.304798 6.765478 -5.107378 0.201068 1.884751 -0.593684
346.471184 89.631229 259.603997 66.861030 -4.213030 0.802057 -0.264017 6.572603 1.455712 -0.154751 2.936082 0.626743 -0.154751 2.936082 0.626743 -0.119052 2.201906 0.470698 -1.186930 31.121030 -2.272904 -0.805660 9.009132 -2.263187 -4.785536 7.067848 7.747256 6.149930 -5.205115 -16.956301 37.929404 -42.566337 -0.850180 4.321145 0.248270 18.776488 6.842781 6.138452 -8.474646 -0.397023 -2.565117 11.533963 -27.937301 -46.442224 -9.118912 -10.434412 6.679756 -4.522771 -7.390313 14.431606 -2.007974 -4.342977 9.897376 3.373557 3.995424 -17.502122 0.586306 0.032210 -0.405333 -0.223034 8.316545 -11.164288 -2.993016 9.726310 1.011414 -0.729826 -0.183386 6.592143 -4.644106 0.178624 1.638351 -0.691197
346.950519 89.517760 259.736397 66.715678 -4.241965 0.618762 -0.215522 6.563458 1.479625 -0.136496 2.931404 0.631778 -0.136496 2.931404 0.631778 -0.105382 2.198415 0.474385 -1.149412 31.115748 -2.239776 -0.771300 9.001022 -2.234661 -4.785601 7.062849 7.738996 6.256743 -5.153131 -17.037095 37.741259 -42.583182 -0.660402 4.258371 0.271441 18.756195 6.843785 6.129288 -8.486690 -0.392926 -2.578657 11.469212 -27.910161 -46.419206 -9.082334 -10.472690 6.707576 -4.542625 -7.291894 14.633004 -1.953375 -4.319920 10.226954 3.394761 4.005930 -17.808407 0.776397 0.042499 -0.452598 -0.254910 8.266094 -11.178279 -2.869385 9.976711 1.086340 -0.759269 -0.035473 6.484200 -4.316076 0.147422 1.317667 -0.671904
